<svg width="151" height="38" viewBox="0 0 151 38" fill="none" xmlns="http://www.w3.org/2000/svg">
<path d="M47.1039 12.2977C48.8214 12.2977 50.3222 12.6381 51.6064 13.3189C52.8907 13.9997 53.8809 14.959 54.5772 16.1968C55.2889 17.4191 55.6448 18.8348 55.6448 20.444C55.6448 22.0377 55.2889 23.4534 54.5772 24.6912C53.8809 25.929 52.8829 26.8883 51.5832 27.5691C50.299 28.2499 48.8059 28.5903 47.1039 28.5903H41V12.2977H47.1039ZM46.8486 25.1554C48.3495 25.1554 49.5176 24.7454 50.3532 23.9253C51.1887 23.1053 51.6064 21.9448 51.6064 20.444C51.6064 18.9432 51.1887 17.775 50.3532 16.9395C49.5176 16.1039 48.3495 15.6862 46.8486 15.6862H44.9687V25.1554H46.8486ZM63.7578 28.776C62.489 28.776 61.344 28.5052 60.3228 27.9637C59.3171 27.4221 58.5203 26.6485 57.9323 25.6428C57.3598 24.6371 57.0736 23.4612 57.0736 22.115C57.0736 20.7844 57.3676 19.6162 57.9555 18.6105C58.5435 17.5893 59.3481 16.8079 60.3693 16.2664C61.3905 15.7249 62.5354 15.4541 63.8042 15.4541C65.0729 15.4541 66.2179 15.7249 67.2391 16.2664C68.2603 16.8079 69.0649 17.5893 69.6528 18.6105C70.2408 19.6162 70.5347 20.7844 70.5347 22.115C70.5347 23.4457 70.233 24.6216 69.6296 25.6428C69.0416 26.6485 68.2293 27.4221 67.1927 27.9637C66.1715 28.5052 65.0265 28.776 63.7578 28.776ZM63.7578 25.3411C64.5159 25.3411 65.158 25.0626 65.6841 24.5055C66.2256 23.9485 66.4964 23.1517 66.4964 22.115C66.4964 21.0784 66.2334 20.2815 65.7073 19.7245C65.1967 19.1675 64.5623 18.889 63.8042 18.889C63.0305 18.889 62.3884 19.1675 61.8778 19.7245C61.3672 20.2661 61.1119 21.0629 61.1119 22.115C61.1119 23.1517 61.3595 23.9485 61.8546 24.5055C62.3652 25.0626 62.9996 25.3411 63.7578 25.3411ZM80.5313 15.5005C82.0476 15.5005 83.2545 15.9956 84.1519 16.9859C85.0647 17.9606 85.5212 19.3068 85.5212 21.0242V28.5903H81.5757V21.558C81.5757 20.6916 81.3513 20.0185 80.9026 19.5389C80.4539 19.0592 79.8505 18.8194 79.0923 18.8194C78.3342 18.8194 77.7307 19.0592 77.282 19.5389C76.8333 20.0185 76.609 20.6916 76.609 21.558V28.5903H72.6403V15.6398H76.609V17.3572C77.0113 16.7847 77.5528 16.336 78.2336 16.0111C78.9144 15.6707 79.6803 15.5005 80.5313 15.5005ZM87.4899 22.0918C87.4899 20.7612 87.7375 19.593 88.2326 18.5873C88.7432 17.5816 89.4317 16.8079 90.2982 16.2664C91.1647 15.7249 92.1317 15.4541 93.1993 15.4541C94.1122 15.4541 94.909 15.6398 95.5898 16.0111C96.2861 16.3824 96.8199 16.8698 97.1912 17.4733V15.6398H101.16V28.5903H97.1912V26.7568C96.8044 27.3602 96.2629 27.8476 95.5666 28.219C94.8858 28.5903 94.089 28.776 93.1761 28.776C92.124 28.776 91.1647 28.5052 90.2982 27.9637C89.4317 27.4067 88.7432 26.6253 88.2326 25.6196C87.7375 24.5984 87.4899 23.4225 87.4899 22.0918ZM97.1912 22.115C97.1912 21.1248 96.9127 20.3434 96.3557 19.7709C95.8142 19.1985 95.1488 18.9122 94.3597 18.9122C93.5706 18.9122 92.8976 19.1985 92.3406 19.7709C91.799 20.328 91.5283 21.1016 91.5283 22.0918C91.5283 23.0821 91.799 23.8712 92.3406 24.4591C92.8976 25.0316 93.5706 25.3179 94.3597 25.3179C95.1488 25.3179 95.8142 25.0316 96.3557 24.4591C96.9127 23.8866 97.1912 23.1053 97.1912 22.115ZM109.3 28.776C108.17 28.776 107.164 28.5826 106.282 28.1958C105.4 27.8089 104.704 27.2829 104.194 26.6176C103.683 25.9368 103.397 25.1786 103.335 24.3431H107.257C107.304 24.7918 107.512 25.1554 107.884 25.4339C108.255 25.7124 108.712 25.8517 109.253 25.8517C109.748 25.8517 110.127 25.7588 110.39 25.5732C110.669 25.372 110.808 25.1167 110.808 24.8073C110.808 24.4359 110.615 24.1652 110.228 23.995C109.841 23.8093 109.214 23.6081 108.348 23.3915C107.42 23.1749 106.646 22.9506 106.027 22.7185C105.408 22.4709 104.874 22.0918 104.426 21.5812C103.977 21.0552 103.753 20.3512 103.753 19.4692C103.753 18.7265 103.954 18.0535 104.356 17.4501C104.774 16.8311 105.377 16.3438 106.166 15.9879C106.971 15.632 107.922 15.4541 109.021 15.4541C110.646 15.4541 111.922 15.8564 112.85 16.6609C113.794 17.4655 114.336 18.5331 114.475 19.8638H110.808C110.746 19.4151 110.545 19.0592 110.205 18.7962C109.88 18.5331 109.447 18.4016 108.905 18.4016C108.441 18.4016 108.085 18.4945 107.837 18.6801C107.59 18.8503 107.466 19.0901 107.466 19.3996C107.466 19.7709 107.659 20.0494 108.046 20.2351C108.449 20.4208 109.067 20.6065 109.903 20.7921C110.862 21.0397 111.644 21.2873 112.247 21.5348C112.85 21.7669 113.377 22.1537 113.825 22.6953C114.289 23.2213 114.529 23.9331 114.545 24.8305C114.545 25.5886 114.328 26.2694 113.895 26.8729C113.477 27.4608 112.866 27.925 112.061 28.2654C111.272 28.6058 110.352 28.776 109.3 28.776ZM118.969 14.2936C118.272 14.2936 117.7 14.0925 117.251 13.6902C116.818 13.2725 116.601 12.7619 116.601 12.1584C116.601 11.5395 116.818 11.0289 117.251 10.6266C117.7 10.2089 118.272 10 118.969 10C119.649 10 120.206 10.2089 120.64 10.6266C121.088 11.0289 121.313 11.5395 121.313 12.1584C121.313 12.7619 121.088 13.2725 120.64 13.6902C120.206 14.0925 119.649 14.2936 118.969 14.2936ZM120.941 15.6398V28.5903H116.973V15.6398H120.941ZM136.026 21.9062C136.026 22.2775 136.002 22.6643 135.956 23.0666H126.974C127.036 23.8712 127.291 24.4901 127.74 24.9233C128.204 25.3411 128.769 25.5499 129.434 25.5499C130.425 25.5499 131.113 25.1322 131.5 24.2967H135.724C135.507 25.1477 135.113 25.9136 134.54 26.5943C133.983 27.2751 133.279 27.8089 132.428 28.1958C131.577 28.5826 130.626 28.776 129.574 28.776C128.305 28.776 127.175 28.5052 126.185 27.9637C125.195 27.4221 124.421 26.6485 123.864 25.6428C123.307 24.6371 123.029 23.4612 123.029 22.115C123.029 20.7689 123.299 19.593 123.841 18.5873C124.398 17.5816 125.172 16.8079 126.162 16.2664C127.152 15.7249 128.289 15.4541 129.574 15.4541C130.827 15.4541 131.941 15.7171 132.916 16.2432C133.89 16.7693 134.649 17.5197 135.19 18.4945C135.747 19.4692 136.026 20.6065 136.026 21.9062ZM131.964 20.8618C131.964 20.181 131.732 19.6394 131.268 19.2371C130.804 18.8348 130.223 18.6337 129.527 18.6337C128.862 18.6337 128.297 18.8271 127.833 19.2139C127.384 19.6007 127.106 20.15 126.997 20.8618H131.964ZM146.01 15.5005C147.526 15.5005 148.733 15.9956 149.631 16.9859C150.544 17.9606 151 19.3068 151 21.0242V28.5903H147.054V21.558C147.054 20.6916 146.83 20.0185 146.381 19.5389C145.933 19.0592 145.329 18.8194 144.571 18.8194C143.813 18.8194 143.21 19.0592 142.761 19.5389C142.312 20.0185 142.088 20.6916 142.088 21.558V28.5903H138.119V15.6398H142.088V17.3572C142.49 16.7847 143.032 16.336 143.712 16.0111C144.393 15.6707 145.159 15.5005 146.01 15.5005Z" fill="#018D37"/>
<path d="M10.8493 0.0141939V2.07654C10.8493 2.41772 10.8269 2.7674 10.8502 3.10771C11.0082 5.41429 11.5316 7.70026 12.3772 9.85242C14.0866 14.2024 17.1644 17.9743 21.0778 20.5288C22.8643 21.695 24.8083 22.5938 26.8444 23.2264C27.9748 23.5775 29.1353 23.8283 30.3065 23.9971C30.86 24.0768 31.4314 24.1615 31.9902 24.1731C31.8879 24.1174 31.754 24.0979 31.643 24.0608C31.3921 23.9773 31.1424 23.8918 30.8958 23.7963C30.1714 23.5158 29.476 23.166 28.8228 22.7453C27.4299 21.8482 26.2911 20.5831 25.5318 19.1119C24.9115 17.9105 24.5301 16.5939 24.3233 15.2608C24.1473 14.1253 24.0804 12.9689 24.1085 11.8201C24.1168 11.4833 24.1526 11.1458 24.1609 10.8099C24.1817 9.96229 24.161 9.1115 24.161 8.26357C24.161 7.41975 24.2172 6.55355 24.0934 5.71721C23.8483 4.06098 22.9761 2.52871 21.6671 1.4815C20.7595 0.755508 19.6622 0.260383 18.5101 0.0907057C17.5627 -0.0488234 16.5827 0.0141939 15.6268 0.0141939H10.8493Z" fill="#018D37"/>
<path d="M5.20905 4.54175C4.95218 4.57549 4.70348 4.59616 4.45139 4.66515C3.89229 4.81818 3.38411 5.12664 2.96764 5.52678C2.67637 5.80663 2.43756 6.15975 2.26985 6.52598C1.61968 7.94581 2.0082 9.70851 3.25175 10.6778C3.56865 10.9248 3.92245 11.1195 4.30406 11.2467C4.81417 11.4167 5.36225 11.4557 5.89306 11.3843C7.65924 11.1464 8.94867 9.49699 8.82807 7.73602C8.72724 6.26389 7.6602 4.99615 6.2298 4.63857C5.91079 4.55884 5.53797 4.49855 5.20905 4.54175Z" fill="#018D37"/>
<path d="M34.9998 24.1742V19.6075V17.9871C34.9998 17.4995 35.0051 17.0185 34.9338 16.5351C34.6718 14.7567 33.6626 13.1335 32.2007 12.0917C31.7071 11.74 31.1631 11.4499 30.5906 11.2494C29.8165 10.9781 29.0299 10.8636 28.2124 10.8636H25.1607H24.4135C24.3614 10.8636 24.1959 10.8368 24.1613 10.8805C24.1164 10.9372 24.1408 11.1286 24.1399 11.2003C24.1368 11.4633 24.119 11.7256 24.1189 11.9895C24.1185 13.0634 24.1624 14.1223 24.316 15.1882C24.5602 16.8831 25.1113 18.5426 26.0414 19.9863C27.0988 21.6278 28.6831 22.851 30.4643 23.6194C30.954 23.8307 31.4702 24.0422 31.9902 24.1663C32.092 24.1906 32.2122 24.1742 32.3164 24.1742H32.9583H34.9998Z" fill="#3BAB35"/>
<path d="M5.26439e-06 13.6191V18.112V19.7325C5.26439e-06 20.2547 -0.00210426 20.7725 0.0781329 21.2897C0.379157 23.2304 1.55705 24.9722 3.24113 25.9826C3.8254 26.3332 4.46138 26.5947 5.12477 26.752C5.97204 26.9528 6.82807 26.9296 7.69241 26.9296H10.8493C10.904 26.2377 10.9118 25.53 10.8813 24.8357C10.7611 22.0907 10.2111 19.3093 8.46057 17.1019C8.07184 16.6117 7.63349 16.1631 7.15573 15.7595C6.58524 15.2776 5.94966 14.8572 5.28261 14.5214C4.56815 14.1617 3.80982 13.8229 3.03067 13.6271C2.92979 13.6017 2.80806 13.6191 2.70445 13.6191H2.06254H5.26439e-06Z" fill="#3BAB35"/>
<path d="M3.03076 13.6211V13.6316C3.34507 13.678 3.67037 13.8303 3.96732 13.9401C4.77576 14.239 5.55449 14.6265 6.27188 15.1047C6.84379 15.4859 7.38496 15.9227 7.86047 16.42C10.3348 19.0074 11.043 22.7697 10.8911 26.2372C10.8404 27.3963 10.8494 28.5578 10.8494 29.72C10.8494 30.4515 10.8151 31.1917 10.8933 31.9191C10.9882 32.803 11.2927 33.6774 11.7378 34.4445C12.7493 36.1869 14.5224 37.3935 16.5109 37.7019C16.99 37.7762 17.469 37.7695 17.9526 37.7695H19.6468H24.1612V35.7492C24.1612 35.415 24.1831 35.0724 24.1602 34.7391C24.0056 32.4789 23.5103 30.2494 22.7046 28.1312C20.2821 21.7634 14.8897 16.6548 8.37651 14.6309C7.18076 14.2594 5.96478 13.9758 4.72498 13.7971C4.17061 13.7173 3.59113 13.6215 3.03076 13.6211Z" fill="#018D37"/>
</svg>
