<svg width="140" height="35" viewBox="0 0 140 35" fill="none" xmlns="http://www.w3.org/2000/svg">
<path d="M9.82396 0.012849V1.87978C9.82396 2.18863 9.80366 2.50518 9.82481 2.81324C9.96784 4.90126 10.4418 6.97063 11.2076 8.91886C12.7554 12.8567 15.5424 16.2711 19.0861 18.5837C20.7038 19.6393 22.4642 20.453 24.3079 21.0256C25.3315 21.3435 26.3823 21.5705 27.4429 21.7232C27.944 21.7954 28.4615 21.8721 28.9675 21.8826C28.8748 21.8322 28.7536 21.8145 28.6531 21.781C28.4259 21.7053 28.1998 21.628 27.9765 21.5415C27.3206 21.2876 26.6908 20.9709 26.0993 20.5901C24.8381 19.778 23.8069 18.6328 23.1193 17.301C22.5576 16.2134 22.2122 15.0215 22.025 13.8148C21.8655 12.7868 21.805 11.74 21.8305 10.7001C21.838 10.3952 21.8704 10.0897 21.8779 9.78565C21.8967 9.01833 21.878 8.24815 21.878 7.48057C21.878 6.7167 21.9289 5.93258 21.8168 5.17548C21.5948 3.67618 20.8051 2.2891 19.6197 1.34112C18.7979 0.683921 17.8042 0.235711 16.761 0.0821109C15.9031 -0.0441972 15.0157 0.012849 14.1501 0.012849H9.82396Z" fill="white"/>
<path d="M4.71691 4.1107C4.48431 4.14124 4.2591 4.15995 4.03083 4.22241C3.52456 4.36093 3.06439 4.64017 2.68726 5.00239C2.42351 5.25572 2.20726 5.57539 2.0554 5.90691C1.46665 7.19221 1.81847 8.78789 2.94453 9.66534C3.23148 9.8889 3.55187 10.0652 3.89742 10.1804C4.35934 10.3342 4.85563 10.3695 5.33629 10.3049C6.9356 10.0895 8.10321 8.59641 7.994 7.0023C7.9027 5.66966 6.93648 4.52204 5.64121 4.19835C5.35234 4.12616 5.01475 4.07159 4.71691 4.1107Z" fill="white"/>
<path d="M31.6935 21.8809V17.747V16.2801C31.6935 15.8387 31.6982 15.4032 31.6337 14.9657C31.3965 13.3558 30.4826 11.8864 29.1588 10.9433C28.7119 10.625 28.2192 10.3623 27.7009 10.1808C26.9999 9.93524 26.2876 9.8316 25.5473 9.8316H22.7839H22.1074C22.0601 9.8316 21.9103 9.80731 21.879 9.84684C21.8383 9.89818 21.8604 10.0714 21.8596 10.1364C21.8568 10.3744 21.8407 10.6119 21.8406 10.8508C21.8402 11.8229 21.8799 12.7815 22.0191 13.7464C22.2402 15.2808 22.7392 16.783 23.5814 18.0899C24.539 19.5758 25.9736 20.6831 27.5865 21.3788C28.0299 21.57 28.4974 21.7615 28.9682 21.8738C29.0603 21.8958 29.1693 21.8809 29.2636 21.8809H29.8449H31.6935Z" fill="white"/>
<path d="M4.76701e-06 12.3295V16.3967V17.8636C4.76701e-06 18.3363 -0.00190545 18.805 0.070751 19.2733C0.343334 21.0301 1.40994 22.6068 2.93491 23.5215C3.46398 23.8389 4.03987 24.0756 4.64058 24.218C5.4078 24.3997 6.18296 24.3788 6.96564 24.3788H9.82431C9.87377 23.7524 9.88082 23.1117 9.85328 22.4833C9.74436 19.9984 9.24633 17.4805 7.66122 15.4823C7.30922 15.0385 6.91229 14.6325 6.47966 14.2671C5.96307 13.8308 5.38755 13.4503 4.78352 13.1462C4.13655 12.8207 3.44987 12.514 2.74433 12.3367C2.65299 12.3138 2.54276 12.3295 2.44893 12.3295H1.86767H4.76701e-06Z" fill="white"/>
<path d="M2.74438 12.3281V12.3377C3.02899 12.3797 3.32356 12.5175 3.59246 12.6169C4.32452 12.8874 5.02967 13.2383 5.67929 13.6712C6.19717 14.0163 6.6872 14.4117 7.11778 14.8618C9.35832 17.204 9.9996 20.6099 9.8621 23.7488C9.81617 24.7981 9.82437 25.8496 9.82437 26.9016C9.82437 27.5638 9.7933 28.2339 9.8641 28.8924C9.95005 29.6925 10.2257 30.484 10.6288 31.1784C11.5447 32.7558 13.1503 33.848 14.9509 34.1272C15.3848 34.1944 15.8185 34.1883 16.2564 34.1883H17.7905H21.8784V32.3595C21.8784 32.057 21.8983 31.7469 21.8776 31.4451C21.7375 29.3991 21.2891 27.3808 20.5594 25.4633C18.3658 19.6989 13.4829 15.0744 7.58507 13.2423C6.50229 12.9059 5.4012 12.6492 4.27854 12.4875C3.77654 12.4152 3.25181 12.3285 2.74438 12.3281Z" fill="white"/>
<path d="M41.7018 10.4239C43.3267 10.4239 44.7467 10.7459 45.9617 11.39C47.1767 12.0342 48.1136 12.9418 48.7724 14.1129C49.4458 15.2694 49.7825 16.6088 49.7825 18.1313C49.7825 19.6391 49.4458 20.9785 48.7724 22.1496C48.1136 23.3208 47.1694 24.2284 45.9398 24.8725C44.7247 25.5166 43.3121 25.8386 41.7018 25.8386H35.9268V10.4239H41.7018ZM41.4603 22.5888C42.8802 22.5888 43.9855 22.2009 44.776 21.425C45.5665 20.6492 45.9617 19.5512 45.9617 18.1313C45.9617 16.7113 45.5665 15.6061 44.776 14.8155C43.9855 14.025 42.8802 13.6298 41.4603 13.6298H39.6816V22.5888H41.4603ZM57.4583 26.0143C56.2579 26.0143 55.1746 25.7581 54.2085 25.2458C53.2569 24.7334 52.503 24.0015 51.9468 23.0499C51.4051 22.0984 51.1343 20.9858 51.1343 19.7123C51.1343 18.4533 51.4124 17.3481 51.9687 16.3966C52.525 15.4304 53.2862 14.6911 54.2524 14.1788C55.2185 13.6664 56.3018 13.4102 57.5022 13.4102C58.7026 13.4102 59.7859 13.6664 60.7521 14.1788C61.7182 14.6911 62.4794 15.4304 63.0357 16.3966C63.592 17.3481 63.8701 18.4533 63.8701 19.7123C63.8701 20.9712 63.5847 22.0838 63.0138 23.0499C62.4575 24.0015 61.6889 24.7334 60.7081 25.2458C59.742 25.7581 58.6587 26.0143 57.4583 26.0143ZM57.4583 22.7645C58.1756 22.7645 58.7831 22.501 59.2808 21.974C59.7932 21.447 60.0494 20.6931 60.0494 19.7123C60.0494 18.7315 59.8005 17.9776 59.3028 17.4506C58.8197 16.9236 58.2195 16.6601 57.5022 16.6601C56.7703 16.6601 56.1628 16.9236 55.6797 17.4506C55.1966 17.9629 54.955 18.7168 54.955 19.7123C54.955 20.6931 55.1893 21.447 55.6577 21.974C56.1408 22.501 56.741 22.7645 57.4583 22.7645ZM73.328 13.4541C74.7627 13.4541 75.9045 13.9226 76.7535 14.8595C77.6172 15.7817 78.0491 17.0553 78.0491 18.6802V25.8386H74.3162V19.1853C74.3162 18.3655 74.1039 17.7287 73.6794 17.2749C73.2548 16.8211 72.6839 16.5942 71.9666 16.5942C71.2493 16.5942 70.6784 16.8211 70.2539 17.2749C69.8293 17.7287 69.6171 18.3655 69.6171 19.1853V25.8386H65.8622V13.5859H69.6171V15.2108C69.9977 14.6692 70.5101 14.2446 71.1542 13.9372C71.7983 13.6152 72.5229 13.4541 73.328 13.4541ZM79.9117 19.6903C79.9117 18.4314 80.146 17.3261 80.6144 16.3746C81.0975 15.4231 81.7489 14.6911 82.5687 14.1788C83.3885 13.6664 84.3034 13.4102 85.3135 13.4102C86.1772 13.4102 86.9311 13.5859 87.5752 13.9372C88.234 14.2885 88.739 14.7497 89.0903 15.3206V13.5859H92.8452V25.8386H89.0903V24.1039C88.7244 24.6749 88.212 25.136 87.5532 25.4873C86.9091 25.8386 86.1552 26.0143 85.2915 26.0143C84.2961 26.0143 83.3885 25.7581 82.5687 25.2458C81.7489 24.7188 81.0975 23.9795 80.6144 23.028C80.146 22.0618 79.9117 20.9493 79.9117 19.6903ZM89.0903 19.7123C89.0903 18.7754 88.8268 18.0361 88.2998 17.4945C87.7875 16.9528 87.158 16.682 86.4114 16.682C85.6648 16.682 85.028 16.9528 84.501 17.4945C83.9887 18.0215 83.7325 18.7534 83.7325 19.6903C83.7325 20.6272 83.9887 21.3738 84.501 21.9301C85.028 22.4717 85.6648 22.7425 86.4114 22.7425C87.158 22.7425 87.7875 22.4717 88.2998 21.9301C88.8268 21.3884 89.0903 20.6492 89.0903 19.7123ZM100.546 26.0143C99.4776 26.0143 98.5261 25.8313 97.6916 25.4654C96.8572 25.0994 96.1985 24.6017 95.7154 23.9722C95.2323 23.3281 94.9615 22.6108 94.9029 21.8203H98.6139C98.6578 22.2448 98.8554 22.5888 99.2068 22.8523C99.5581 23.1158 99.99 23.2476 100.502 23.2476C100.971 23.2476 101.329 23.1597 101.578 22.9841C101.842 22.7938 101.974 22.5522 101.974 22.2594C101.974 21.9081 101.791 21.6519 101.425 21.4909C101.059 21.3152 100.466 21.1249 99.6459 20.92C98.7676 20.715 98.0357 20.5028 97.4501 20.2832C96.8645 20.049 96.3595 19.6903 95.935 19.2072C95.5104 18.7095 95.2982 18.0434 95.2982 17.209C95.2982 16.5063 95.4885 15.8696 95.8691 15.2986C96.2644 14.7131 96.8353 14.252 97.5819 13.9153C98.3431 13.5786 99.2434 13.4102 100.283 13.4102C101.82 13.4102 103.028 13.7908 103.906 14.552C104.799 15.3133 105.311 16.3234 105.443 17.5823H101.974C101.915 17.1578 101.725 16.8211 101.403 16.5722C101.095 16.3234 100.685 16.1989 100.173 16.1989C99.7338 16.1989 99.3971 16.2868 99.1629 16.4624C98.9286 16.6235 98.8115 16.8504 98.8115 17.1431C98.8115 17.4945 98.9945 17.758 99.3605 17.9336C99.7411 18.1093 100.327 18.285 101.117 18.4606C102.025 18.6949 102.764 18.9291 103.335 19.1633C103.906 19.3829 104.404 19.7489 104.828 20.2612C105.267 20.7589 105.494 21.4323 105.509 22.2814C105.509 22.9987 105.304 23.6428 104.894 24.2137C104.499 24.77 103.92 25.2092 103.159 25.5312C102.413 25.8533 101.542 26.0143 100.546 26.0143ZM109.694 12.3123C109.036 12.3123 108.494 12.122 108.07 11.7414C107.66 11.3461 107.455 10.863 107.455 10.2921C107.455 9.70657 107.66 9.22349 108.07 8.84288C108.494 8.44763 109.036 8.25 109.694 8.25C110.338 8.25 110.865 8.44763 111.275 8.84288C111.7 9.22349 111.912 9.70657 111.912 10.2921C111.912 10.863 111.7 11.3461 111.275 11.7414C110.865 12.122 110.338 12.3123 109.694 12.3123ZM111.561 13.5859V25.8386H107.806V13.5859H111.561ZM125.832 19.5146C125.832 19.866 125.81 20.2319 125.766 20.6126H117.269C117.327 21.3738 117.569 21.9593 117.993 22.3692C118.432 22.7645 118.967 22.9621 119.596 22.9621C120.533 22.9621 121.184 22.5668 121.55 21.7763H125.547C125.342 22.5815 124.969 23.3061 124.427 23.9502C123.9 24.5943 123.234 25.0994 122.429 25.4654C121.624 25.8313 120.723 26.0143 119.728 26.0143C118.527 26.0143 117.459 25.7581 116.522 25.2458C115.585 24.7334 114.853 24.0015 114.326 23.0499C113.799 22.0984 113.536 20.9858 113.536 19.7123C113.536 18.4387 113.792 17.3261 114.304 16.3746C114.831 15.4231 115.563 14.6911 116.5 14.1788C117.437 13.6664 118.513 13.4102 119.728 13.4102C120.914 13.4102 121.968 13.6591 122.89 14.1568C123.812 14.6545 124.529 15.3645 125.042 16.2868C125.569 17.209 125.832 18.285 125.832 19.5146ZM121.99 18.5265C121.99 17.8824 121.77 17.37 121.331 16.9894C120.892 16.6088 120.343 16.4185 119.684 16.4185C119.054 16.4185 118.52 16.6015 118.081 16.9675C117.656 17.3334 117.393 17.8531 117.29 18.5265H121.99ZM135.279 13.4541C136.713 13.4541 137.855 13.9226 138.704 14.8595C139.568 15.7817 140 17.0553 140 18.6802V25.8386H136.267V19.1853C136.267 18.3655 136.055 17.7287 135.63 17.2749C135.206 16.8211 134.635 16.5942 133.917 16.5942C133.2 16.5942 132.629 16.8211 132.205 17.2749C131.78 17.7287 131.568 18.3655 131.568 19.1853V25.8386H127.813V13.5859H131.568V15.2108C131.948 14.6692 132.461 14.2446 133.105 13.9372C133.749 13.6152 134.474 13.4541 135.279 13.4541Z" fill="white"/>
</svg>
